<svg width="24" height="20" viewBox="0 0 24 20" fill="none" xmlns="http://www.w3.org/2000/svg">
<path d="M23 0.999802C22.0424 1.67528 20.9821 2.19191 19.86 2.5298C19.2577 1.83731 18.4573 1.34649 17.567 1.12373C16.6767 0.900962 15.7395 0.956997 14.8821 1.28426C14.0247 1.61151 13.2884 2.1942 12.773 2.95352C12.2575 3.71283 11.9877 4.61214 12 5.5298V6.5298C10.2426 6.57537 8.50127 6.18561 6.93101 5.39525C5.36074 4.60488 4.01032 3.43844 3 1.9998C3 1.9998 -1 10.9998 8 14.9998C5.94053 16.3978 3.48716 17.0987 1 16.9998C10 21.9998 21 16.9998 21 5.4998C20.9991 5.22126 20.9723 4.9434 20.92 4.6698C21.9406 3.6633 22.6608 2.39251 23 0.999802Z" stroke="#DA2535" stroke-width="1.4" stroke-linecap="round" stroke-linejoin="round"/>
</svg>
